 <svg  version="1.0" xmlns="http://www.w3.org/2000/svg"  width="495.000000pt" height="345.000000pt" viewBox="0 0 495.000000 345.000000"  preserveAspectRatio="xMidYMid meet">  <g transform="translate(0.000000,345.000000) scale(0.100000,-0.100000)" fill="#a8a5ff" stroke="none"> <path d="M12 3424 c1 -9 9 -19 16 -22 9 -3 13 2 10 14 -1 9 -9 19 -16 22 -9 3 -13 -2 -10 -14z"/> <path d="M2955 2491 c-3 -6 -4 -14 -2 -18 6 -9 -8 -99 -19 -127 -6 -17 -3 -18 33 -12 l40 7 13 -48 c6 -26 14 -55 17 -63 4 -8 7 -22 9 -30 24 -123 25 -139 15 -177 -13 -48 -48 -102 -76 -117 -11 -6 -22 -14 -25 -17 -22 -27 -151 -81 -199 -83 -8 -1 -16 -7 -18 -13 -14 -41 180 35 263 103 62 50 83 100 78 182 -4 64 -10 111 -14 122 -1 3 -2 8 -1 12 0 6 -28 90 -44 130 -5 12 -1 17 16 20 12 2 24 8 25 13 5 15 -103 128 -111 116z m54 -80 c25 -35 25 -37 5 -45 -10 -4 -13 -2 -8 7 5 8 2 7 -9 -2 -9 -7 -17 -12 -18 -10 -7 34 -6 46 4 58 9 12 9 13 0 7 -7 -4 -13 -2 -13 3 0 20 18 11 39 -18z"/> <path d="M2410 1917 c0 -37 3 -67 8 -67 9 0 9 116 -1 126 -4 4 -7 -23 -7 -59z"/> <path d="M1871 1913 c2 -59 2 -61 18 -43 9 11 25 26 36 34 20 15 20 15 -2 13 -13 -1 -23 -5 -23 -9 0 -4 -5 -8 -11 -8 -7 0 -9 10 -7 24 3 14 1 31 -3 38 -5 8 -8 -12 -8 -49z"/> <path d="M2522 1957 c-7 -8 -9 -17 -5 -20 3 -4 1 -18 -6 -31 -13 -24 -12 -57 2 -57 4 1 23 1 42 1 41 0 45 11 9 30 -19 11 -24 19 -19 35 11 34 10 48 -1 52 -6 2 -16 -3 -22 -10z m28 -11 c0 -3 -4 -8 -10 -11 -5 -3 -10 -1 -10 4 0 6 5 11 10 11 6 0 10 -2 10 -4z m0 -75 c0 -4 -9 -7 -20 -7 -11 0 -20 1 -20 2 0 1 3 10 6 18 5 13 9 14 20 5 8 -6 14 -14 14 -18z"/> <path d="M1663 1904 c-1 -39 2 -54 10 -51 7 2 11 13 10 23 -1 15 5 20 25 22 36 3 83 25 79 37 -4 12 -27 13 -26 1 0 -5 -5 -13 -13 -17 -18 -12 -68 -11 -68 0 0 16 21 24 33 12 13 -13 27 -14 27 -2 0 8 -52 31 -69 31 -3 0 -7 -25 -8 -56z"/> <path d="M2150 1940 c0 -11 -4 -20 -10 -20 -5 0 -10 -4 -10 -10 0 -5 7 -10 15 -10 9 0 15 -9 15 -24 0 -14 5 -28 10 -31 14 -9 40 13 40 33 0 12 -3 13 -12 4 -18 -18 -28 -15 -28 8 0 12 10 24 23 30 l22 9 -22 0 c-16 1 -21 6 -17 16 4 9 0 15 -10 15 -9 0 -16 -8 -16 -20z"/> <path d="M1804 1906 c-11 -29 1 -51 29 -54 19 -2 27 1 27 13 0 9 -6 15 -12 14 -26 -3 -39 1 -33 11 4 6 15 8 26 5 23 -8 26 10 3 19 -24 9 -34 7 -40 -8z"/> <path d="M2022 1908 c-19 -19 -15 -60 5 -56 9 2 18 9 21 16 2 8 -2 10 -15 5 -16 -6 -17 -5 -3 12 14 17 15 17 24 -8 10 -28 21 -34 31 -17 3 6 1 10 -5 10 -6 0 -8 5 -5 10 3 6 1 10 -4 10 -6 0 -10 5 -8 12 3 17 -26 21 -41 6z"/> <path d="M2229 1904 c-16 -20 -1 -48 29 -52 27 -4 49 33 31 54 -15 19 -43 18 -60 -2z m46 -15 c10 -15 -1 -23 -20 -15 -9 3 -13 10 -10 16 8 13 22 13 30 -1z"/> <path d="M2324 1906 c-11 -28 1 -51 25 -51 32 0 49 28 32 49 -17 20 -50 21 -57 2z m42 -17 c3 -6 0 -15 -7 -20 -14 -8 -32 9 -23 23 7 11 22 10 30 -3z"/> <path d="M1760 1881 c0 -11 5 -23 10 -26 6 -4 10 5 10 19 0 14 -4 26 -10 26 -5 0 -10 -9 -10 -19z"/> <path d="M2570 1890 c0 -5 5 -10 10 -10 6 0 10 5 10 10 0 6 -4 10 -10 10 -5 0 -10 -4 -10 -10z"/> <path d="M1906 1865 c4 -8 12 -15 20 -15 8 0 14 7 14 15 0 8 -9 15 -20 15 -13 0 -18 -5 -14 -15z"/> <path d="M2169 1781 c-1 -12 -2 -27 -3 -33 -1 -7 -12 -15 -26 -18 -19 -4 -25 -12 -25 -30 0 -28 32 -41 46 -18 7 10 11 10 17 1 4 -6 8 15 9 48 0 32 -3 62 -8 65 -5 3 -10 -4 -10 -15z m-9 -75 c0 -2 -7 -9 -15 -16 -12 -10 -15 -10 -15 4 0 9 7 16 15 16 8 0 15 -2 15 -4z"/> <path d="M1693 1765 c-41 -17 -42 -29 -3 -45 17 -7 32 -16 35 -20 5 -8 -32 -5 -57 5 -13 5 -18 2 -18 -8 0 -19 33 -31 66 -23 31 8 31 33 -1 48 -14 6 -25 15 -25 20 0 4 11 8 25 8 16 0 25 6 25 15 0 18 -6 18 -47 0z"/> <path d="M1763 1761 c3 -14 0 -21 -9 -21 -8 0 -14 -4 -14 -10 0 -5 7 -7 15 -4 12 5 15 -2 15 -30 0 -23 5 -36 13 -36 18 0 37 21 37 39 0 12 -3 12 -12 3 -18 -18 -28 -15 -28 8 0 12 10 24 23 30 l22 9 -22 0 c-13 1 -22 6 -20 12 1 6 -4 14 -12 17 -10 3 -13 -1 -8 -17z"/> <path d="M1988 1758 c-2 -16 -9 -22 -23 -21 -11 1 -23 -4 -27 -10 -6 -9 -8 -9 -8 1 0 6 -4 12 -8 12 -4 0 -6 -16 -4 -35 4 -37 22 -49 22 -15 0 12 9 24 23 29 29 11 37 6 37 -30 0 -17 5 -29 13 -29 18 0 37 21 37 39 0 12 -3 12 -12 3 -18 -18 -28 -15 -28 8 0 12 10 24 23 30 l22 9 -22 0 c-14 1 -23 7 -23 16 0 24 -18 17 -22 -7z"/> <path d="M2645 1743 c-3 -21 -8 -48 -11 -60 -3 -15 0 -23 10 -23 7 0 14 10 15 23 1 12 3 36 4 52 1 17 7 33 12 37 6 5 3 8 -7 8 -12 0 -19 -11 -23 -37z"/> <path d="M2436 1761 c-3 -5 1 -12 10 -15 20 -8 29 -1 19 13 -8 13 -22 14 -29 2z"/> <path d="M2210 1708 c0 -21 5 -38 10 -38 6 0 10 9 10 20 0 11 7 23 15 26 8 4 15 10 15 15 0 5 -7 9 -15 9 -8 0 -15 -6 -15 -12 0 -9 -4 -8 -10 2 -7 11 -10 5 -10 -22z"/> <path d="M2423 1732 c-5 -4 -15 -16 -21 -27 -10 -18 -11 -18 -12 -2 0 10 -5 15 -10 12 -6 -4 -8 -11 -5 -16 4 -5 2 -9 -4 -9 -5 0 -13 5 -16 10 -3 6 -1 10 4 10 6 0 11 5 11 10 0 6 -7 10 -15 10 -16 0 -20 -27 -7 -46 15 -23 91 4 76 27 -3 5 -1 9 5 9 5 0 11 -10 13 -22 4 -25 28 -37 28 -14 0 9 -5 16 -11 16 -5 0 -8 3 -6 8 7 11 -18 31 -30 24z"/> <path d="M1840 1715 c-7 -8 -9 -22 -6 -31 7 -18 37 -15 44 4 3 11 0 12 -17 2 -20 -10 -21 -10 -9 9 17 28 26 26 34 -4 3 -14 10 -25 15 -25 12 0 11 4 -3 35 -13 28 -39 33 -58 10z"/> <path d="M2272 1718 c-7 -7 -12 -20 -12 -30 0 -23 36 -24 49 0 10 16 10 16 11 0 0 -10 5 -18 10 -18 13 0 13 3 -2 35 -12 27 -36 33 -56 13z m26 -17 c-7 -11 -16 -17 -20 -14 -10 5 10 33 23 33 5 0 4 -9 -3 -19z"/> <path d="M2480 1696 c0 -30 0 -30 16 -8 19 27 34 28 34 2 0 -11 4 -20 9 -20 5 0 6 12 2 28 -6 21 -14 27 -34 27 -23 1 -27 -3 -27 -29z"/> <path d="M2563 1715 c-18 -19 -5 -48 18 -42 21 6 23 -1 10 -22 -6 -9 -11 -10 -15 -2 -4 6 -12 9 -17 5 -11 -6 7 -34 22 -34 11 0 25 28 34 69 7 33 6 34 -10 18 -17 -17 -41 -14 -29 4 3 5 10 7 15 4 5 -4 9 -1 9 4 0 15 -23 13 -37 -4z"/> <path d="M1404 1248 c-5 -8 3 -12 19 -9 4 0 7 -4 7 -10 0 -6 -7 -9 -15 -5 -8 3 -15 2 -15 -3 0 -5 9 -11 20 -14 21 -5 46 25 35 43 -6 10 -44 9 -51 -2z"/> <path d="M1090 1242 c0 -51 56 -152 85 -152 6 0 25 19 43 42 l32 42 -26 27 c-14 15 -42 30 -62 34 -21 3 -45 8 -54 11 -10 3 -18 1 -18 -4z m85 -30 c31 -9 55 -36 46 -51 -5 -8 -14 -10 -21 -6 -9 5 -11 4 -6 -4 9 -14 -12 -43 -25 -35 -5 3 -7 10 -4 15 4 5 -2 9 -12 9 -13 0 -22 12 -29 40 -12 43 -8 54 15 44 9 -3 25 -9 36 -12z"/> <path d="M1352 1238 c-24 -6 -32 -13 -28 -24 3 -8 2 -13 -3 -10 -5 3 -37 -29 -72 -71 -35 -43 -85 -99 -110 -125 -41 -42 -45 -50 -33 -65 7 -10 14 -14 14 -9 0 5 11 -4 25 -20 l24 -28 68 67 c37 37 81 77 97 89 52 40 107 99 101 109 -4 5 -2 9 3 9 13 0 10 28 -4 34 -7 3 -15 -2 -18 -10 -4 -10 -2 -13 7 -7 6 4 4 -5 -6 -20 -9 -15 -15 -27 -13 -27 2 0 -19 -22 -47 -49 -36 -35 -54 -46 -60 -38 -6 8 -7 6 -3 -5 3 -11 0 -18 -7 -18 -7 0 -32 -22 -57 -50 -48 -53 -63 -60 -78 -33 -6 10 -16 14 -26 10 -28 -11 -18 4 62 87 42 45 88 98 102 119 14 20 33 40 43 43 9 3 14 10 11 16 -5 7 -1 9 8 5 18 -6 57 17 42 25 -5 3 -24 1 -42 -4z"/> <path d="M1680 1201 c0 -9 -10 -11 -32 -7 l-33 6 28 -11 c29 -11 60 1 44 18 -4 3 -7 1 -7 -6z"/> <path d="M1729 1198 c22 -29 7 -46 -38 -44 -23 1 -37 -2 -32 -7 4 -4 26 -7 47 -5 31 2 40 7 42 24 2 11 -5 27 -15 35 -16 13 -17 12 -4 -3z"/> <path d="M2315 1200 c11 -5 16 -9 12 -9 -5 -1 -1 -8 7 -17 9 -8 14 -19 11 -24 -3 -4 2 -10 10 -14 12 -4 11 3 -5 34 -12 24 -27 40 -38 39 -14 0 -14 -2 3 -9z"/> <path d="M3257 1203 c-4 -3 -7 -11 -7 -17 0 -6 5 -4 10 4 8 12 11 13 19 1 6 -9 10 -10 12 -2 3 7 13 -9 24 -34 11 -24 23 -45 27 -45 4 0 3 10 -2 23 -6 12 -15 34 -21 50 -10 26 -45 37 -62 20z"/> <path d="M1346 1187 c-21 -15 -13 -44 16 -53 24 -7 48 21 40 48 -5 21 -31 24 -56 5z m44 -23 c0 -8 -8 -14 -18 -14 -25 0 -34 11 -21 26 13 15 39 7 39 -12z"/> <path d="M1920 1190 c13 -8 13 -10 -2 -10 -9 0 -26 -13 -38 -30 -12 -16 -17 -30 -12 -30 6 0 12 6 15 14 3 8 18 23 32 32 23 15 28 15 36 3 6 -9 9 -10 9 -2 0 7 -9 17 -19 23 -25 13 -41 13 -21 0z"/> <path d="M2280 1180 c0 -11 4 -20 9 -20 5 0 7 9 4 20 -3 11 -7 20 -9 20 -2 0 -4 -9 -4 -20z"/> <path d="M2437 1193 c-4 -3 -7 -37 -7 -73 0 -53 4 -70 18 -81 14 -11 15 -11 5 1 -8 8 -13 42 -13 82 0 59 2 67 17 61 11 -4 14 -3 9 5 -8 13 -19 15 -29 5z"/> <path d="M2644 1185 c-4 -8 -4 -48 0 -88 3 -39 6 -83 7 -97 0 -23 1 -23 8 -5 5 11 4 33 0 50 -5 16 -9 56 -9 89 l0 59 30 -7 c19 -3 29 -2 25 4 -10 16 -55 12 -61 -5z"/> <path d="M2739 1198 c-6 -18 -3 -46 3 -42 5 4 7 12 4 19 -3 10 7 15 37 18 l42 4 -42 1 c-24 1 -43 1 -44 0z"/> <path d="M3038 1193 c12 -2 32 -2 45 0 12 2 2 4 -23 4 -25 0 -35 -2 -22 -4z"/> <path d="M3601 1174 c-22 -28 -27 -44 -13 -44 4 0 13 14 19 30 15 39 31 38 36 -2 4 -32 4 -32 5 5 2 45 -17 49 -47 11z"/> <path d="M1597 1179 c7 -7 15 -10 18 -7 3 3 -2 9 -12 12 -14 6 -15 5 -6 -5z"/> <path d="M1825 1170 c10 -11 20 -18 23 -15 7 6 -18 35 -31 35 -5 0 -2 -9 8 -20z"/> <path d="M2058 1183 c7 -3 16 -2 19 1 4 3 -2 6 -13 5 -11 0 -14 -3 -6 -6z"/> <path d="M2115 1180 c4 -6 10 -8 15 -5 11 7 33 -22 26 -34 -5 -7 -15 -7 -32 -1 -39 15 -53 11 -17 -5 58 -25 89 -8 53 30 -23 24 -58 36 -45 15z"/> <path d="M2838 1183 c6 -2 18 -2 25 0 6 3 1 5 -13 5 -14 0 -19 -2 -12 -5z"/> <path d="M2964 1174 c-18 -15 -18 -15 3 -5 12 6 30 8 40 5 15 -5 15 -4 3 5 -20 14 -23 14 -46 -5z"/> <path d="M3128 1174 c13 -9 27 -26 32 -38 7 -17 9 -17 9 -3 1 19 -33 57 -51 57 -7 0 -2 -7 10 -16z"/> <path d="M3438 1183 c6 -2 9 -10 6 -15 -4 -7 -2 -8 4 -4 18 11 14 26 -5 25 -11 0 -13 -3 -5 -6z"/> <path d="M1560 1161 c0 -24 16 -36 26 -20 5 8 3 9 -6 4 -10 -6 -12 -3 -8 13 4 12 2 22 -3 22 -5 0 -9 -9 -9 -19z"/> <path d="M1784 1165 c-4 -9 1 -24 10 -34 9 -10 16 -23 16 -29 0 -16 18 -24 26 -11 4 8 3 9 -4 5 -7 -4 -12 -1 -12 7 0 8 -7 20 -15 27 -11 9 -12 16 -5 25 8 9 8 15 0 20 -5 3 -13 -1 -16 -10z"/> <path d="M2001 1144 c-17 -19 -29 -40 -26 -45 9 -14 25 0 18 16 -3 8 -1 15 5 15 5 0 17 11 26 25 23 36 13 31 -23 -11z"/> <path d="M2870 1169 c-13 -9 -12 -10 3 -5 9 3 17 0 17 -6 0 -6 3 -9 6 -5 7 7 28 -12 37 -33 4 -10 6 -8 6 7 1 12 -9 29 -21 37 -26 19 -28 19 -48 5z"/> <path d="M3400 1176 c0 -2 7 -7 16 -10 8 -3 12 -2 9 4 -6 10 -25 14 -25 6z"/> <path d="M2478 1094 c3 -54 7 -74 19 -78 12 -5 13 -3 6 6 -5 7 -9 43 -8 79 0 38 -4 66 -10 66 -6 0 -9 -28 -7 -73z"/> <path d="M2693 1075 c1 -52 6 -95 10 -95 10 0 6 179 -4 186 -4 2 -7 -39 -6 -91z"/> <path d="M3085 1161 c-6 -5 -19 -11 -30 -14 -19 -4 -19 -5 1 -6 12 0 27 6 34 14 14 16 10 20 -5 6z"/> <path d="M3520 1166 c0 -2 7 -9 15 -16 13 -11 14 -10 9 4 -5 14 -24 23 -24 12z"/> <path d="M1920 1156 c0 -2 7 -7 16 -10 8 -3 12 -2 9 4 -6 10 -25 14 -25 6z"/> <path d="M2794 1145 c-5 -11 -7 -42 -3 -70 l7 -50 -1 55 c-1 51 1 55 21 52 12 -2 22 2 22 8 0 7 -6 10 -14 7 -8 -3 -16 -1 -19 6 -2 7 -8 4 -13 -8z"/> <path d="M3246 1143 c-6 -14 -5 -15 5 -6 7 7 10 15 7 18 -3 3 -9 -2 -12 -12z"/> <path d="M3505 1151 c3 -5 1 -12 -5 -16 -5 -3 -10 -12 -10 -18 0 -7 6 -4 14 5 7 10 17 14 22 10 4 -4 2 1 -5 11 -14 18 -26 24 -16 8z"/> <path d="M1626 1142 c-2 -4 -1 -14 4 -22 7 -11 9 -9 7 8 -1 24 -3 26 -11 14z"/> <path d="M2266 1135 c-3 -8 -1 -15 3 -15 5 0 11 7 15 15 3 8 1 15 -3 15 -5 0 -11 -7 -15 -15z"/> <path d="M2981 1136 c-7 -8 -11 -35 -8 -63 l3 -48 2 51 c1 27 7 55 14 62 7 7 9 12 6 12 -3 0 -11 -6 -17 -14z"/> <path d="M3017 1113 c3 -59 3 -59 11 -48 4 6 13 11 20 13 6 1 18 3 24 5 32 6 57 51 36 64 -7 4 -9 -1 -6 -14 4 -16 -2 -24 -28 -37 -32 -15 -34 -15 -34 3 0 24 -10 51 -19 51 -3 0 -5 -17 -4 -37z"/> <path d="M3410 1129 c0 -11 4 -18 10 -14 5 3 7 12 3 20 -7 21 -13 19 -13 -6z"/> <path d="M2055 1130 c3 -5 8 -10 11 -10 2 0 4 5 4 10 0 6 -5 10 -11 10 -5 0 -7 -4 -4 -10z"/> <path d="M2756 1127 c3 -10 9 -15 12 -12 3 3 0 11 -7 18 -10 9 -11 8 -5 -6z"/> <path d="M3446 1127 c3 -10 9 -15 12 -12 3 3 0 11 -7 18 -10 9 -11 8 -5 -6z"/> <path d="M1925 1120 c-4 -6 -10 -8 -15 -5 -5 3 -12 0 -16 -6 -4 -8 -3 -9 4 -5 7 4 12 2 12 -3 0 -6 -5 -11 -11 -11 -15 0 20 -54 45 -70 l21 -13 -21 24 c-34 38 -36 47 -18 74 9 14 14 25 11 25 -3 0 -9 -5 -12 -10z"/> <path d="M2880 1126 c0 -2 8 -10 18 -17 15 -13 16 -12 3 4 -13 16 -21 21 -21 13z"/> <path d="M3563 1117 c19 -16 24 -32 5 -21 -7 4 -8 3 -4 -5 8 -12 26 -6 26 9 0 5 -10 14 -22 20 -21 10 -21 10 -5 -3z"/> <path d="M1657 1109 c7 -7 15 -10 18 -7 3 3 -2 9 -12 12 -14 6 -15 5 -6 -5z"/> <path d="M1697 1107 c-3 -8 1 -14 9 -14 16 0 19 13 5 21 -5 3 -11 0 -14 -7z"/> <path d="M2022 1100 c-7 -11 -9 -20 -4 -20 4 0 13 9 20 20 7 11 9 20 4 20 -4 0 -13 -9 -20 -20z"/> <path d="M2340 1110 c-9 -6 -10 -10 -3 -10 6 0 15 5 18 10 8 12 4 12 -15 0z"/> <path d="M3140 1109 c0 -7 -7 -21 -17 -31 -17 -19 -27 -81 -11 -72 5 3 6 14 3 23 -3 10 1 24 10 31 24 20 37 48 25 55 -5 3 -10 1 -10 -6z"/> <path d="M3236 1108 c3 -5 10 -6 15 -3 13 9 11 12 -6 12 -8 0 -12 -4 -9 -9z"/> <path d="M3286 1107 c-18 -13 -18 -14 -1 -21 10 -4 23 -2 29 4 8 8 5 9 -9 4 -18 -7 -18 -6 -6 9 16 20 11 22 -13 4z"/> <path d="M3628 1095 c-3 -14 -1 -25 3 -25 5 0 9 11 9 25 0 14 -2 25 -4 25 -2 0 -6 -11 -8 -25z"/> <path d="M2952 1085 c0 -16 2 -22 5 -12 2 9 2 23 0 30 -3 6 -5 -1 -5 -18z"/> <path d="M1580 1060 c0 -22 2 -40 4 -40 2 0 6 18 8 40 2 22 0 40 -4 40 -5 0 -8 -18 -8 -40z"/> <path d="M3347 1087 c-4 -11 -3 -16 3 -12 9 5 15 -15 11 -37 0 -5 4 -8 10 -8 5 0 8 -4 4 -9 -3 -5 0 -13 6 -16 5 -4 8 -13 5 -20 -2 -7 2 -16 10 -19 8 -3 13 -2 11 2 -6 11 -20 46 -22 57 -2 6 -9 26 -17 45 -12 28 -15 31 -21 17z"/> <path d="M3484 1089 c-4 -7 -3 -9 4 -5 18 11 22 -10 7 -30 -17 -23 -19 -34 -4 -34 5 0 8 4 4 9 -3 5 -1 12 5 16 5 3 15 16 21 28 7 12 8 19 4 15 -5 -4 -14 -3 -21 3 -8 7 -14 6 -20 -2z"/> <path d="M2236 1075 c-9 -26 -7 -32 5 -12 6 10 9 21 6 23 -2 3 -7 -2 -11 -11z"/> <path d="M2283 1069 c-2 -23 3 -25 10 -4 4 8 3 16 -1 19 -4 3 -9 -4 -9 -15z"/> <path d="M2317 1077 c-3 -9 -1 -18 6 -21 9 -3 8 -8 -3 -15 -9 -7 -10 -11 -3 -11 18 0 24 16 15 41 -7 18 -10 19 -15 6z"/> <path d="M3418 1083 c-2 -5 -1 -26 3 -48 l6 -40 2 48 c1 44 -3 57 -11 40z"/> <path d="M1690 1070 c-8 -5 -10 -10 -5 -10 6 0 17 5 25 10 8 5 11 10 5 10 -5 0 -17 -5 -25 -10z"/> <path d="M1965 1070 c3 -5 8 -10 11 -10 2 0 4 5 4 10 0 6 -5 10 -11 10 -5 0 -7 -4 -4 -10z"/> <path d="M3215 1070 c3 -5 -2 -21 -11 -35 -10 -15 -12 -25 -5 -25 6 0 11 6 11 14 0 7 7 19 15 26 19 16 19 30 -1 30 -8 0 -12 -4 -9 -10z"/> <path d="M1823 1063 c-17 -6 -16 -20 0 -26 8 -3 14 3 14 14 1 10 1 19 0 18 -1 0 -8 -3 -14 -6z"/> <path d="M2023 1048 c22 -35 22 -44 0 -27 -15 11 -16 11 -6 -1 15 -16 43 -22 43 -10 0 5 -12 22 -27 37 l-27 28 17 -27z"/> <path d="M2740 1051 c0 -11 4 -22 9 -25 4 -3 6 6 3 19 -5 30 -12 33 -12 6z"/> <path d="M2866 1051 c-10 -11 -30 -23 -45 -26 -15 -3 -28 -12 -28 -20 0 -11 4 -12 14 -4 7 7 27 9 46 5 20 -4 27 -3 18 3 -11 7 -11 9 0 14 11 4 11 6 1 6 -10 1 -10 4 0 15 7 8 16 12 21 9 4 -2 7 1 7 6 0 17 -15 13 -34 -8z"/> <path d="M1630 1051 c0 -5 9 -7 20 -4 11 3 20 7 20 9 0 2 -9 4 -20 4 -11 0 -20 -4 -20 -9z"/> <path d="M2932 1056 c4 -5 -5 -18 -20 -31 -15 -13 -24 -26 -21 -29 3 -3 18 7 33 23 21 22 25 31 14 37 -7 4 -10 4 -6 0z"/> <path d="M3531 1053 c-1 -6 6 -18 14 -27 9 -8 15 -17 14 -18 -5 -8 14 -47 25 -51 23 -9 33 7 39 58 l6 50 -13 -50 c-13 -55 -27 -61 -39 -15 -4 16 -12 30 -18 30 -6 0 -7 5 -3 12 4 6 3 8 -4 4 -5 -3 -13 0 -15 6 -4 9 -6 9 -6 1z"/> <path d="M1338 1020 c-16 -17 -28 -34 -28 -39 0 -5 21 -25 46 -46 l45 -37 25 23 c13 12 24 28 24 34 0 12 -69 95 -79 95 -3 0 -18 -14 -33 -30z m55 -14 c10 -8 14 -17 8 -20 -5 -3 -11 -1 -13 6 -3 7 -7 4 -12 -7 -4 -11 -4 -16 0 -12 4 4 14 1 22 -6 13 -9 14 -9 8 1 -4 6 -3 12 2 12 15 0 21 -24 8 -35 -20 -17 -31 -15 -62 11 -27 24 -28 27 -12 38 10 7 15 16 11 19 -12 13 22 6 40 -7z"/> <path d="M1720 1040 c-12 -8 -10 -10 9 -8 17 2 24 -3 27 -17 1 -11 -2 -23 -9 -28 -8 -6 -8 -7 3 -4 13 3 17 24 11 60 -1 10 -23 9 -41 -3z"/> <path d="M1980 1040 c-8 -5 -12 -12 -9 -15 4 -3 12 1 19 10 14 17 11 19 -10 5z"/> <path d="M2123 1038 c-25 -12 -29 -23 -11 -34 7 -4 8 -3 4 4 -4 7 -3 12 1 12 5 0 18 7 29 15 22 17 9 19 -23 3z"/> <path d="M2173 1026 c0 -15 -9 -34 -19 -42 -18 -14 -18 -15 2 -5 24 11 36 42 24 61 -5 7 -7 2 -7 -14z"/> <path d="M2364 1038 c-4 -7 -3 -8 4 -4 7 4 17 -3 24 -18 6 -14 15 -26 20 -26 5 0 0 14 -12 30 -24 34 -26 35 -36 18z"/> <path d="M2220 1022 c-8 -10 -16 -26 -17 -36 -1 -22 9 -11 25 27 14 32 12 34 -8 9z"/> <path d="M2520 1031 c0 -6 5 -13 12 -17 7 -5 8 -3 4 5 -6 9 2 11 30 9 51 -4 53 -30 4 -40 l-35 -6 40 1 c36 2 40 5 43 30 3 26 2 27 -47 27 -28 0 -51 -4 -51 -9z"/> <path d="M1660 1021 c0 -5 9 -7 20 -4 11 3 20 7 20 9 0 2 -9 4 -20 4 -11 0 -20 -4 -20 -9z"/> <path d="M3286 1013 c-47 -24 -27 -28 32 -5 8 3 12 -1 10 -9 -1 -8 2 -15 7 -15 6 -1 8 3 6 10 -2 6 -4 16 -4 22 0 15 -20 13 -51 -3z"/> <path d="M1790 1009 c0 -5 5 -7 10 -4 6 3 10 8 10 11 0 2 -4 4 -10 4 -5 0 -10 -5 -10 -11z"/> <path d="M1986 1012 c-2 -4 2 -15 9 -25 7 -10 16 -14 19 -9 3 6 -1 13 -10 16 -8 3 -12 10 -9 16 3 5 4 10 1 10 -3 0 -7 -3 -10 -8z"/> <path d="M2438 997 c-3 -19 -2 -25 4 -19 6 6 8 18 6 28 -3 14 -5 12 -10 -9z"/> <path d="M2970 1004 c0 -8 5 -12 10 -9 6 4 8 11 5 16 -9 14 -15 11 -15 -7z"/> <path d="M3018 993 c4 -23 2 -25 -21 -21 -15 3 -24 1 -21 -3 10 -16 43 -9 54 12 11 19 13 19 36 4 13 -8 24 -11 24 -6 0 9 -26 24 -45 26 -5 0 -15 4 -21 7 -7 5 -9 -1 -6 -19z"/> <path d="M1570 996 c0 -35 12 -46 49 -45 l36 2 -35 6 c-29 5 -34 10 -32 29 2 12 -2 22 -7 22 -6 0 -11 -6 -11 -14z"/> <path d="M1842 989 c-19 -30 -8 -34 12 -4 9 14 13 25 9 25 -5 0 -14 -9 -21 -21z"/> <path d="M2300 1000 c-11 -8 -8 -9 12 -4 22 5 29 1 43 -25 9 -18 23 -31 33 -30 15 1 15 2 0 6 -9 2 -21 17 -27 34 -10 30 -33 37 -61 19z"/> <path d="M3473 996 c-4 -8 -19 -16 -33 -19 -25 -4 -25 -4 2 -6 18 -1 31 6 38 19 12 22 6 28 -7 6z"/> <path d="M1895 991 c-3 -6 1 -13 9 -18 8 -4 15 -12 15 -18 -1 -15 15 -16 35 -2 15 11 16 16 6 22 -8 5 -11 4 -7 -2 4 -6 0 -14 -9 -17 -22 -8 -26 -8 -19 4 3 6 -1 13 -9 16 -9 3 -13 10 -10 15 3 5 3 9 0 9 -3 0 -7 -4 -11 -9z"/> <path d="M3180 989 c0 -5 5 -7 10 -4 6 3 10 8 10 11 0 2 -4 4 -10 4 -5 0 -10 -5 -10 -11z"/> <path d="M1707 979 c7 -7 15 -10 18 -7 3 3 -2 9 -12 12 -14 6 -15 5 -6 -5z"/> <path d="M1785 981 c3 -6 10 -9 15 -6 4 3 11 0 13 -5 3 -6 4 -5 3 2 -1 7 -11 15 -21 16 -11 3 -15 0 -10 -7z"/> <path d="M2250 975 c-7 -8 -17 -12 -24 -8 -8 4 -8 3 1 -7 9 -9 15 -8 32 9 12 12 17 21 12 21 -5 0 -14 -7 -21 -15z"/> <path d="M2506 978 c3 -5 10 -6 15 -3 13 9 11 12 -6 12 -8 0 -12 -4 -9 -9z"/> <path d="M2747 976 c-3 -8 0 -17 7 -19 10 -4 12 1 9 14 -6 23 -9 24 -16 5z"/> <path d="M3137 968 c-5 -19 -8 -20 -24 -8 -17 13 -17 13 -1 -5 14 -15 20 -16 32 -5 17 13 22 40 7 40 -5 0 -11 -10 -14 -22z"/> <path d="M3225 979 c-11 -17 1 -21 15 -4 8 9 8 15 2 15 -6 0 -14 -5 -17 -11z"/> <path d="M2835 970 c-3 -6 1 -7 9 -4 18 7 21 14 7 14 -6 0 -13 -4 -16 -10z"/> <path d="M2653 963 c9 -2 25 -2 35 0 9 3 1 5 -18 5 -19 0 -27 -2 -17 -5z"/> <path d="M2788 963 c6 -2 18 -2 25 0 6 3 1 5 -13 5 -14 0 -19 -2 -12 -5z"/> <path d="M3185 960 c3 -5 11 -10 16 -10 6 0 7 5 4 10 -3 6 -11 10 -16 10 -6 0 -7 -4 -4 -10z"/> <path d="M1175 949 c-4 -6 -5 -12 -2 -15 2 -3 7 2 10 11 7 17 1 20 -8 4z"/> <path d="M2058 953 c12 -2 30 -2 40 0 9 3 -1 5 -23 4 -22 0 -30 -2 -17 -4z"/> <path d="M3358 953 c6 -2 18 -2 25 0 6 3 1 5 -13 5 -14 0 -19 -2 -12 -5z"/> <path d="M712 525 c4 -97 18 -97 18 0 0 44 -4 75 -10 75 -6 0 -9 -29 -8 -75z"/> <path d="M746 593 c-3 -3 -6 -37 -6 -75 0 -54 3 -68 15 -68 12 0 15 14 15 69 0 65 -8 90 -24 74z m11 -105 c-2 -18 -4 -4 -4 32 0 36 2 50 4 33 2 -18 2 -48 0 -65z"/> <path d="M2400 526 c0 -44 4 -76 10 -76 6 0 10 30 10 69 0 39 -4 73 -10 76 -6 4 -10 -22 -10 -69z"/> <path d="M2711 525 c1 -41 6 -75 10 -75 5 0 9 34 9 75 0 45 -4 75 -10 75 -7 0 -10 -29 -9 -75z"/> <path d="M2747 594 c-4 -4 -7 -38 -7 -76 0 -51 3 -69 13 -66 7 3 13 28 15 68 3 59 -6 89 -21 74z m10 -116 c-3 -7 -5 -2 -5 12 0 14 2 19 5 13 2 -7 2 -19 0 -25z"/> <path d="M1315 581 c-3 -6 -1 -11 4 -11 6 0 11 -5 11 -11 0 -5 -5 -7 -10 -4 -6 4 -10 3 -9 -2 5 -26 -2 -42 -16 -37 -21 9 -45 -14 -45 -42 0 -19 5 -24 25 -24 14 0 28 7 32 15 8 22 -4 30 -21 16 -9 -8 -16 -8 -20 -2 -7 11 29 25 44 16 5 -3 10 -12 10 -20 0 -8 4 -16 8 -19 9 -5 10 119 1 129 -4 3 -10 2 -14 -4z"/> <path d="M2302 572 c4 -14 2 -20 -4 -16 -7 5 -9 -3 -6 -20 5 -22 2 -26 -13 -21 -23 8 -52 -18 -47 -43 5 -25 52 -23 56 3 3 16 1 18 -9 8 -17 -17 -29 -16 -29 2 0 25 40 17 50 -10 5 -14 11 -25 13 -25 9 0 3 131 -6 137 -6 4 -8 -2 -5 -15z"/> <path d="M660 566 c0 -8 -16 -35 -35 -60 -43 -57 -44 -70 -5 -48 29 16 31 16 41 0 14 -25 24 -22 24 7 0 14 -4 25 -8 25 -4 0 -3 9 3 19 7 14 7 22 0 26 -8 5 -8 11 -1 19 6 7 8 16 4 19 -11 12 -23 8 -23 -7z m0 -66 c-6 -11 -18 -20 -27 -20 -14 0 -14 3 3 19 25 26 37 26 24 1z"/> <path d="M3532 555 c3 -13 1 -22 -3 -19 -15 9 -10 -63 5 -76 8 -6 25 -10 38 -8 32 4 33 52 1 56 -19 3 -23 10 -23 38 0 19 -5 34 -11 34 -7 0 -9 -10 -7 -25z m48 -70 c0 -2 -9 -9 -20 -15 -16 -9 -18 -8 -14 5 5 13 34 22 34 10z"/> <path d="M1460 550 c0 -11 -7 -20 -15 -20 -8 0 -15 -4 -15 -10 0 -12 27 -13 34 -1 3 4 17 7 31 6 14 -2 25 1 25 6 0 5 -9 9 -20 9 -11 0 -20 7 -20 15 0 8 -4 15 -10 15 -5 0 -10 -9 -10 -20z"/> <path d="M1685 550 c-7 -12 2 -30 16 -30 12 0 12 27 0 35 -5 3 -12 1 -16 -5z"/> <path d="M2926 551 c-3 -5 1 -14 8 -20 16 -13 32 2 21 19 -8 12 -22 13 -29 1z"/> <path d="M1153 514 c-3 -8 -12 -13 -20 -10 -11 4 -14 -1 -11 -21 4 -37 24 -40 31 -3 4 18 13 30 22 30 9 0 13 5 10 10 -9 15 -25 12 -32 -6z"/> <path d="M1733 523 c-23 -9 -14 -30 18 -43 26 -11 28 -15 14 -23 -9 -5 -19 -6 -22 -3 -4 3 0 6 8 6 12 0 12 2 -1 9 -20 13 -34 2 -19 -15 14 -17 65 -19 75 -2 8 13 -33 51 -46 43 -5 -3 -11 -1 -15 5 -3 5 3 10 14 10 11 0 23 5 26 10 6 10 -30 13 -52 3z"/> <path d="M1893 523 c-15 -6 -17 -33 -3 -33 6 0 10 5 10 10 0 6 9 10 20 10 11 0 20 5 20 10 0 10 -26 12 -47 3z"/> <path d="M2056 522 c-6 -11 21 -72 33 -72 13 0 51 49 51 66 0 23 -20 16 -30 -11 -15 -39 -36 -31 -31 13 2 13 -15 17 -23 4z"/> <path d="M3401 493 c-1 -49 14 -58 23 -13 3 19 12 30 23 30 14 0 15 2 4 13 -10 10 -15 8 -26 -6 -13 -18 -13 -18 -18 0 -3 10 -5 -1 -6 -24z"/> <path d="M3614 514 c3 -9 6 -27 6 -40 0 -34 16 -30 24 6 7 38 34 40 38 3 2 -22 9 -29 31 -31 15 -2 27 1 27 7 0 6 7 11 15 11 8 0 15 6 15 13 0 19 -45 41 -66 33 -9 -3 -23 -1 -31 6 -12 10 -18 9 -29 -7 -12 -17 -14 -17 -14 -2 0 9 -5 17 -11 17 -6 0 -8 -7 -5 -16z m124 -13 c10 -6 10 -10 -3 -21 -18 -15 -42 0 -31 19 8 13 16 14 34 2z"/> <path d="M3860 511 c-6 -12 -7 -21 -3 -21 4 0 -1 -7 -11 -15 -11 -8 -17 -18 -13 -21 10 -11 34 14 42 43 8 33 0 41 -15 14z"/> <path d="M3903 523 c-23 -9 -14 -30 17 -43 17 -7 30 -17 30 -22 0 -6 -7 -5 -15 2 -8 7 -15 9 -15 5 0 -4 -7 -1 -16 6 -14 12 -16 11 -13 -6 3 -15 12 -20 39 -20 44 0 46 18 5 45 -28 18 -28 20 -7 20 12 0 22 5 22 10 0 10 -26 12 -47 3z"/> <path d="M4071 493 c-1 -49 14 -58 22 -14 4 17 14 31 24 33 12 2 14 6 6 11 -6 4 -18 0 -26 -8 -14 -13 -16 -13 -20 3 -3 9 -5 -2 -6 -25z"/> <path d="M840 491 c0 -32 18 -51 30 -32 11 18 0 61 -16 61 -9 0 -14 -11 -14 -29z m17 -13 c-3 -8 -6 -5 -6 6 -1 11 2 17 5 13 3 -3 4 -12 1 -19z"/> <path d="M895 503 c-5 -10 -9 -22 -10 -28 0 -5 -6 -23 -13 -38 -15 -36 -15 -50 0 -45 6 2 16 24 23 49 7 24 15 52 20 62 4 10 3 17 -3 17 -5 0 -13 -8 -17 -17z"/> <path d="M943 513 c-17 -6 -16 -38 1 -53 19 -15 56 -9 69 12 21 32 -26 59 -70 41z m41 -9 c22 -9 20 -19 -7 -31 -21 -10 -23 -9 -21 11 3 31 2 30 28 20z"/> <path d="M1035 493 c1 -16 3 -31 3 -35 3 -15 31 -8 41 10 10 16 10 16 11 0 0 -10 5 -18 11 -18 7 0 9 9 5 23 -3 12 -6 29 -6 37 0 10 -5 7 -16 -8 -8 -12 -23 -22 -32 -21 -10 0 -12 3 -4 6 16 6 15 33 -2 33 -8 0 -12 -10 -11 -27z"/> <path d="M1366 507 c-21 -16 -18 -50 5 -55 9 -2 24 4 33 13 14 15 16 15 16 1 0 -9 5 -16 10 -16 15 0 12 22 -6 48 -17 25 -33 28 -58 9z m39 -16 c-3 -6 -14 -11 -23 -11 -15 1 -15 2 2 15 21 16 32 13 21 -4z"/> <path d="M1545 504 c-15 -11 -17 -18 -9 -31 6 -9 16 -19 24 -21 8 -3 10 0 5 8 -6 9 -4 11 5 5 7 -4 16 -2 21 6 7 11 9 10 9 -3 0 -10 5 -18 11 -18 11 0 3 37 -13 58 -13 16 -28 15 -53 -4z m40 -14 c-3 -5 -10 -10 -16 -10 -5 0 -9 5 -9 10 0 6 7 10 16 10 8 0 12 -4 9 -10z"/> <path d="M1988 509 c-22 -12 -24 -47 -4 -55 8 -3 23 -1 33 5 17 10 16 11 -4 17 -29 8 -30 24 -2 24 11 0 17 -4 14 -10 -3 -5 1 -10 9 -10 19 0 21 11 4 28 -14 14 -27 15 -50 1z"/> <path d="M2152 508 c-17 -17 -15 -55 4 -62 31 -12 64 -7 64 10 0 11 -5 14 -16 10 -19 -7 -54 1 -54 13 0 4 12 7 28 6 17 0 27 5 27 15 0 19 -36 25 -53 8z m38 -8 c0 -5 -4 -10 -10 -10 -5 0 -10 5 -10 10 0 6 5 10 10 10 6 0 10 -4 10 -10z"/> <path d="M2441 511 c-9 -6 -11 -18 -7 -35 5 -20 13 -26 35 -26 36 0 59 25 44 48 -12 19 -51 26 -72 13z m59 -20 c0 -14 -49 -31 -56 -20 -3 6 -3 13 0 16 3 4 6 0 7 -8 0 -8 4 -4 9 8 6 15 15 21 25 17 8 -3 15 -9 15 -13z"/> <path d="M2546 507 c-10 -7 -16 -22 -14 -33 2 -14 12 -19 37 -19 20 0 36 6 39 14 3 10 -3 12 -27 9 -38 -6 -47 3 -20 20 12 8 19 9 19 1 0 -5 5 -7 10 -4 13 8 3 25 -14 25 -7 0 -20 -6 -30 -13z"/> <path d="M2627 506 c-13 -10 -15 -16 -6 -21 6 -4 15 -2 19 5 4 7 14 10 21 8 9 -3 3 -10 -16 -21 -26 -13 -27 -16 -12 -22 9 -4 24 -2 31 4 11 9 15 9 19 -1 9 -26 19 2 10 29 -11 32 -39 40 -66 19z"/> <path d="M2782 488 c3 -34 27 -46 36 -19 3 9 0 12 -10 9 -11 -5 -14 0 -10 18 2 14 0 24 -7 24 -8 0 -11 -12 -9 -32z"/> <path d="M2834 504 c4 -10 2 -13 -6 -8 -8 5 -9 2 -5 -9 3 -9 0 -29 -8 -44 -16 -31 -20 -63 -7 -47 5 5 17 29 27 54 9 25 19 51 22 58 3 7 -2 12 -12 12 -11 0 -15 -5 -11 -16z"/> <path d="M2970 485 l1 -40 20 28 c25 32 40 35 36 6 -1 -12 4 -24 11 -26 9 -4 11 2 6 24 -9 38 -20 49 -37 35 -10 -9 -16 -9 -25 0 -9 9 -12 3 -12 -27z"/> <path d="M3117 513 c-22 -21 7 -71 30 -52 19 16 17 -8 -2 -27 -17 -18 -20 -44 -5 -44 11 0 27 34 34 73 2 12 7 30 11 40 4 10 3 17 -4 17 -10 0 -15 -13 -13 -31 1 -4 -7 -9 -17 -12 -14 -3 -17 1 -15 19 2 23 -6 31 -19 17z"/> <path d="M3222 511 c-8 -4 -12 -19 -10 -32 2 -19 9 -24 32 -24 32 0 53 23 43 49 -7 17 -43 21 -65 7z m47 -27 c-15 -18 -39 -18 -39 -1 0 20 9 25 31 20 15 -4 17 -8 8 -19z"/> <path d="M3312 488 c3 -34 38 -55 38 -24 0 9 -6 16 -14 16 -9 0 -12 7 -9 20 3 12 0 20 -6 20 -8 0 -11 -12 -9 -32z"/> <path d="M3780 498 c0 -13 5 -30 10 -38 8 -13 12 -11 29 7 12 12 17 25 12 28 -6 3 -14 -3 -20 -12 -9 -16 -10 -14 -11 10 0 15 -4 27 -10 27 -5 0 -10 -10 -10 -22z"/> <path d="M3991 506 c-7 -8 -11 -25 -9 -38 2 -18 10 -23 41 -25 28 -1 37 2 37 14 0 10 -6 13 -16 9 -19 -7 -54 1 -54 13 0 4 12 7 28 6 17 0 27 5 27 15 0 20 -39 25 -54 6z m34 -6 c-3 -5 -11 -10 -16 -10 -6 0 -7 5 -4 10 3 6 11 10 16 10 6 0 7 -4 4 -10z"/> <path d="M1462 478 c2 -25 8 -33 22 -33 22 0 44 30 32 42 -5 4 -11 2 -13 -4 -7 -20 -23 -15 -23 7 0 11 -5 20 -11 20 -6 0 -9 -14 -7 -32z"/> <path d="M1690 493 c0 -10 5 -25 10 -33 8 -12 10 -9 10 12 0 15 -4 30 -10 33 -5 3 -10 -2 -10 -12z"/> <path d="M2930 496 c0 -22 11 -46 21 -46 15 0 10 48 -6 54 -9 3 -15 0 -15 -8z"/> <path d="M1905 491 c-6 -10 7 -15 28 -12 4 0 7 -4 7 -10 0 -6 -7 -8 -15 -5 -8 3 -22 9 -31 12 -12 5 -15 2 -12 -12 2 -14 12 -19 38 -19 23 0 35 5 35 14 0 19 -41 45 -50 32z"/> <path d="M3355 479 c10 -32 13 -35 27 -21 9 9 9 12 0 12 -7 0 -11 5 -9 11 1 6 -4 14 -12 16 -10 4 -11 -1 -6 -18z"/> <path d="M4135 470 c-8 -13 4 -32 16 -25 12 8 12 35 0 35 -6 0 -13 -4 -16 -10z"/> <path d="M2040 460 c0 -5 5 -10 10 -10 6 0 10 5 10 10 0 6 -4 10 -10 10 -5 0 -10 -4 -10 -10z"/> </g> </svg> 